Genre:Action | Adventure | Drama | History | Thriller | War
Language:English
IMDb:http://www.imdb.com/title/tt1020558/
Source:ALLiANCE
Subtitles: ROMANA
.............................................
General
Complete name : Centurion.2010.DVDRIP.H264.FEEL-FREE
Format : MPEG-4
Format profile : Base Media
Codec ID : isom
File size : 1.11 GiB
Duration : 1h 33mn
Overall bit rate : 1 693 Kbps
..............................................
Video
ID : 1
Format : AVC
Format/Info : Advanced Video Codec
Format profile : Baseline@L5.1
Format settings, CABAC : No
Format settings, ReFrames : 1 frame
Codec ID : avc1
Codec ID/Info : Advanced Video Coding
Duration : 1h 33mn
Bit rate mode : Variable
Bit rate : 1 523 Kbps
Width : 688 pixels
Height : 288 pixels
Display aspect ratio : 2.35:1
Frame rate mode : Constant
Frame rate : 25.000 fps
Resolution : 24 bits
Colorimetry : 4:2:0
Scan type : Progressive
Bits/(Pixel*Frame) : 0.307
Stream size : 1 018 MiB (90%)
................................................
Audio
ID : 2
Format : AAC
Format/Info : Advanced Audio Codec
Format version : Version 4
Format profile : LC
Format settings, SBR : No
Codec ID : 40
Duration : 1h 33mn
Bit rate mode : Variable
Bit rate : 165 Kbps
Channel(s) : 2 channels
Channel positions : L R
Sampling rate : 48.0 KHz
Resolution : 16 bits
Stream size : 111 MiB (10%)
.................................................
Plot:
A splinter group of Roman soldiers fight for their lives behind enemy lines after their legion is decimated in a devastating guerrilla attack.
...................................................

 
http://thepiratebay.org/user/hiest


.....................................................

Screenshots:
 
http://postimg.com/image/20000/19561.jpg
 
http://postimg.com/image/20000/19563.jpg

.........................................................

